# xmcd
#
# Track frame offsets:
# 150
# 25344
# 43475
# 82128
# 109335
# 130395
#
# Disc length: 2023 seconds
#
#
# Revision: 3
# Processed by: cddbd v1.5.2PL0 Copyright (c) Steve Scherf et al.
# Submitted via: FreeRIP 2.951 
#
DISCID=5707e506
DTITLE=Tracy Conover - Live 2001
DYEAR=2001
DGENRE=Blues
TTITLE0=Big Boss Man
TTITLE1=Voodoo Woman
TTITLE2=Red House
TTITLE3=I Should Have Left You
TTITLE4=Got Me Runnin'
TTITLE5=Rock N' Roll
EXTD=Recorded live at The Side Car Pub in Houston, Texas.\n\nwww.tracyconover.com
EXTT0=
EXTT1=
EXTT2=
EXTT3=
EXTT4=
EXTT5=
PLAYORDER=
